<?xml version="1.0" encoding="UTF-8"?>
<svg width="48px" height="48px" viewBox="0 0 48 48" version="1.1" xmlns="http://www.w3.org/2000/svg" xmlns:xlink="http://www.w3.org/1999/xlink">
    <!-- Generator: Sketch 47.1 (45422) - http://www.bohemiancoding.com/sketch -->
    <title>lf_music</title>
    <desc>Created with Sketch.</desc>
    <defs></defs>
    <g id="Page-1" stroke="none" stroke-width="1" fill="none" fill-rule="evenodd">
        <g id="lf_music" fill-rule="nonzero">
            <path d="M0,23.8626909 C0,37.0417455 10.6836363,47.7253818 23.8626909,47.7253818 C37.0417454,47.7253818 47.7253818,37.0417455 47.7253818,23.8626909 C47.7253818,10.6836364 37.0417454,0 23.8626909,0 C10.6836363,0 0,10.6836364 0,23.8626909 Z" id="background" fill="#4CB96E"></path>
            <path d="M24.0867208,4 C14.3766368,4 6.1734417,11.8599579 6.1734417,21.1635736 C6.1734417,26.4088691 8.79277875,32.6736011 12.8462775,37.1238942 L12.9608499,37.2497402 L13.1279217,37.2168006 C13.1706161,37.2091224 14.0990073,37.0143261 14.4869629,36.3081607 C15.437898,37.0832765 16.2822128,37.1592908 17.1703802,36.8426412 C17.5652842,37.5984079 17.7187679,38.4212053 16.6603633,38.7195808 C15.6639545,39.0017551 14.3324755,38.6355811 13.3493459,38.4873148 C11.7111311,38.2399227 8.24006752,38.1682082 6.58540805,38.2294803 C5.80625429,38.2587343 5.80347491,39.4642908 6.58540805,39.4350368 C8.58301252,39.3614795 12.3367239,39.5583489 14.3130198,39.837452 C15.3018626,39.9771955 16.5643202,40.1707633 17.5121671,39.7128346 C19.1496098,38.9217481 18.8738332,37.5725323 18.2151194,36.32321 C18.7095408,36.0232222 19.2369288,35.6441487 19.808478,35.2367427 C18.223612,34.5443981 16.1484936,31.4471599 14.7311626,28.7465015 C13.7282685,26.8344725 11.76641,22.7823716 11.9876025,20.7342846 C10.7625894,21.5709029 9.80949257,22.2995654 9.29237288,23.2555799 C9.14923465,22.3537736 9.07218397,21.4687826 9.07218397,20.6119707 C9.07218397,13.2395027 16.8356961,8.28720786 24.0861804,8.28720786 C33.0675256,8.28720786 39.099482,14.6601259 39.099482,20.6119707 C39.099482,21.463715 39.030229,22.3361905 38.8968187,23.2189549 C38.3761475,22.2807538 37.4309256,21.5595391 36.2215079,20.7342846 C36.4430093,22.7823716 34.4815368,26.8343957 33.4781795,28.7465015 C32.0613889,31.4471599 29.9857301,34.5450891 28.4010184,35.2367427 C30.5785108,36.7906597 32.0376097,37.8826554 33.9743766,36.0878727 C34.3706703,36.7002103 35.0909938,37.0213901 35.1277434,37.0368233 L35.3285539,37.1225889 L35.4740082,36.9601947 C39.4391844,32.5265633 42,26.3264051 42,21.1628826 C41.9999228,11.85919 33.7966505,4 24.0867208,4 Z" id="hedphone" fill="#000000" transform="translate(24.000000, 22.000000) scale(-1, 1) translate(-24.000000, -22.000000) "></path>
            <path d="M33.9054843,30.6490986 C33.7769025,32.9056804 32.9769025,34.8966622 31.4996661,36.6040077 C30.0910843,38.231935 28.3252661,39.2873531 26.2283934,39.777535 C25.3649752,39.9797168 24.4878843,40.0565168 23.6006116,40.0172441 C21.5534843,39.9261895 19.7035934,39.275135 18.0681025,38.0437168 C16.2976298,36.7107713 15.1025752,34.9708441 14.482357,32.8413895 C14.223157,31.9517895 14.1018479,31.0421168 14.1021389,30.2112804 C14.101557,29.1808804 14.2281025,28.2642259 14.495157,27.367935 C14.5126116,27.3088804 14.4954479,27.2739713 14.456757,27.2317895 C13.7094116,26.4149168 13.2395934,25.4604441 13.0673752,24.3672077 C12.6173389,21.5096077 14.4657752,18.7715713 17.298357,18.1443713 C19.1502843,17.7341895 20.7945025,18.2054622 22.2074479,19.4636441 C22.4608298,19.6890986 22.671157,19.9625531 22.8986479,20.2162259 C22.9323934,20.2537531 22.9582843,20.2744077 23.0141389,20.2682986 C23.4467207,20.2217531 23.8801752,20.1917895 24.3156661,20.2153531 C24.5460661,20.2275713 24.7764661,20.2456077 25.0062843,20.2688804 C25.0665025,20.2749895 25.0953025,20.2537531 25.1275934,20.2115713 C25.627957,19.553535 26.242357,19.0284441 26.9728298,18.6412441 C27.6721752,18.270335 28.4166116,18.0620441 29.2075934,18.0152077 C31.8481752,17.8586986 34.2222843,19.636735 34.8448298,22.1490259 C35.3146479,24.0434259 34.869557,25.7338986 33.5898479,27.2044441 C33.5302116,27.2730986 33.5156661,27.3269168 33.5406843,27.412735 C33.8496298,28.4701895 33.9680298,29.5497531 33.9054843,30.6490986 Z" id="face" fill="#FFFFFF"></path>
            <path d="M26.0651055,23.5257891 C26.0668509,25.3625891 27.5403055,26.8340073 29.3695418,26.8255709 C31.2159418,26.8165527 32.6731055,25.3503709 32.6652509,23.51008 C32.6571055,21.6750255 31.1900509,20.2178618 29.3576145,20.2245527 C27.5208145,20.2312436 26.0630691,21.6927709 26.0651055,23.5257891 Z" id="eye_right" fill="#4CB96E"></path>
            <path d="M28.2637964,23.5222982 C28.2646691,22.9108073 28.7586327,22.4223709 29.3756509,22.4235345 C29.98016,22.4246982 30.4677236,22.9209891 30.4662691,23.5339345 C30.4651055,24.1352436 29.9682327,24.6271709 29.3640145,24.6260073 C28.7563055,24.6251345 28.2632145,24.1300073 28.2637964,23.5222982 Z" id="pupil_right" fill="#FFFFFF"></path>
            <path d="M26.87552,32.5287564 C26.2718836,33.9638109 24.7390836,34.7867927 23.2263564,34.4702836 C22.0519564,34.2247564 21.2481745,33.5146473 20.7929018,32.4080291 C20.7696291,32.3510109 20.7451927,32.3300655 20.6823564,32.3300655 C19.9696291,32.3326836 19.2569018,32.3318109 18.5438836,32.3318109 L18.4641745,32.3318109 C18.9613382,34.8615564 21.3785018,36.9866473 24.3838836,36.7088291 C26.9770473,36.4694109 28.8682473,34.4449745 29.2519564,32.3318109 L29.1609018,32.3318109 C28.5005382,32.3318109 27.8398836,32.3387927 27.17952,32.3268655 C27.0113745,32.3239564 26.9415564,32.3719564 26.87552,32.5287564 Z" id="mouth" fill="#4CB96E"></path>
            <path d="M18.3722182,20.2245527 C16.5368727,20.2126255 15.0645818,21.6712436 15.0564364,23.5097891 C15.0482909,25.3506618 16.504,26.8153891 18.3515636,26.82528 C20.1799273,26.8351709 21.6536727,25.3637527 21.6565818,23.52608 C21.6592,21.6971345 20.2064,20.2367709 18.3722182,20.2245527 Z" id="eye_left" fill="#4CB96E"></path>
            <path d="M17.2551273,23.51648 C17.256,22.9108073 17.7511273,22.4223709 18.3632,22.4235345 C18.9659636,22.4246982 19.4578909,22.9192436 19.4576,23.5234618 C19.4573091,24.1314618 18.9630545,24.6260073 18.3562182,24.6260073 C17.7441455,24.6260073 17.2542545,24.1323345 17.2551273,23.51648 Z" id="pupil_left" fill="#FFFFFF"></path>
        </g>
    </g>
</svg>