<?xml version="1.0" encoding="UTF-8"?>
<svg width="221px" height="261px" viewBox="0 0 221 261" version="1.1" xmlns="http://www.w3.org/2000/svg" xmlns:xlink="http://www.w3.org/1999/xlink">
    <!-- Generator: Sketch 49.2 (51160) - http://www.bohemiancoding.com/sketch -->
    <title>frog@2x</title>
    <desc>Created with Sketch.</desc>
    <defs>
        <radialGradient cx="50.1676795%" cy="52.8910572%" fx="50.1676795%" fy="52.8910572%" r="52.5620827%" gradientTransform="translate(0.501677,0.528911),scale(1.000000,0.967762),translate(-0.501677,-0.528911)" id="radialGradient-1">
            <stop stop-color="#2ECC71" offset="47.02%"></stop>
            <stop stop-color="#28C266" offset="95.77%"></stop>
            <stop stop-color="#27C165" offset="100%"></stop>
        </radialGradient>
        <linearGradient x1="57.1694142%" y1="63.6647723%" x2="40.2891796%" y2="33.5180371%" id="linearGradient-2">
            <stop stop-color="#3BE07E" offset="0%"></stop>
            <stop stop-color="#3ADF7D" offset="3.39%"></stop>
            <stop stop-color="#31D174" offset="55.22%"></stop>
            <stop stop-color="#2ECC71" offset="100%"></stop>
        </linearGradient>
        <linearGradient x1="75.2218166%" y1="87.3263303%" x2="29.2134873%" y2="15.431461%" id="linearGradient-3">
            <stop stop-color="#2ECC71" offset="0%"></stop>
            <stop stop-color="#2AC66A" offset="39.69%"></stop>
            <stop stop-color="#27C165" offset="100%"></stop>
        </linearGradient>
        <linearGradient x1="69.0726967%" y1="77.9562992%" x2="54.1675415%" y2="54.0963043%" id="linearGradient-4">
            <stop stop-color="#264946" offset="27.4%"></stop>
            <stop stop-color="#2A5351" offset="85.99%"></stop>
        </linearGradient>
        <radialGradient cx="50%" cy="39.725104%" fx="50%" fy="39.725104%" r="51.1162465%" gradientTransform="translate(0.500000,0.397251),scale(0.998544,1.000000),rotate(11.596049),translate(-0.500000,-0.397251)" id="radialGradient-5">
            <stop stop-color="#FFFFFF" offset="0%"></stop>
            <stop stop-color="#F7F7F7" offset="73.7%"></stop>
            <stop stop-color="#E6E7E8" offset="100%"></stop>
        </radialGradient>
        <radialGradient cx="40.1279227%" cy="50%" fx="40.1279227%" fy="50%" r="59.959393%" gradientTransform="translate(0.401279,0.500000),scale(0.998544,1.000000),translate(-0.401279,-0.500000)" id="radialGradient-6">
            <stop stop-color="#FFFFFF" offset="0%"></stop>
            <stop stop-color="#F7F7F7" offset="53.5833634%"></stop>
            <stop stop-color="#E6E7E8" offset="100%"></stop>
        </radialGradient>
    </defs>
    <g id="Page-1" stroke="none" stroke-width="1" fill="none" fill-rule="evenodd">
        <g id="Desktop-1" transform="translate(-1201.000000, -543.000000)">
            <g id="frog" transform="translate(1201.000000, 529.000000)">
                <ellipse id="Oval-2" fill-opacity="0.148324275" fill="#000000" cx="92.5" cy="265" rx="39.5" ry="10"></ellipse>
                <ellipse id="Oval-2" fill-opacity="0.148324275" fill="#000000" cx="191.5" cy="265" rx="29.5" ry="8"></ellipse>
                <g id="Group-7" fill-rule="nonzero">
                    <g id="Group-6" transform="translate(0.000000, 109.000000)">
                        <g id="Group" transform="translate(7.210790, 6.625641)">
                            <path d="M30.3414376,24.2098469 C40.1807398,28.011468 89.9939202,25.347813 93.071394,26.3714009 C93.2789081,25.6715615 83.6373316,15.5713852 82.7054757,15.3775239 C77.4980455,14.2977162 43.0213342,19.6657369 35.7544242,18.3591114 C30.3531837,17.3898047 8.39192376,6.34552365 5.98593442,3.33873413 C5.14217412,2.28218978 0.390883541,-0.470641368 0.524005815,0.727421766 C1.2483476,7.18494329 19.3745114,18.4327787 30.3414376,24.2098469 Z" id="Shape" fill="#2ECC71"></path>
                            <path d="M93.071394,26.3714009 C92.3059409,23.1125917 83.9192376,15.2495754 82.7054757,15.3775239 C70.4249459,16.6705791 44.933988,18.2040223 39.4015829,18.5626658 C47.1911937,18.0586263 52.7510063,23.2579877 53.2560879,26.2240663 C69.0428235,26.0786703 89.1853982,26.3345673 93.071394,26.3714009 Z" id="Shape" fill="#00993E" opacity="0.48"></path>
                        </g>
                        <path d="M1.55831368,9.55726632 L5.43060572,9.26259708 C6.01203683,9.21800896 6.51320304,8.54337147 6.05902116,7.99280524 L2.49604264,4.40830891 C1.89307705,3.73948726 2.61741883,2.68682013 3.67848167,3.20442993 L8.21051203,5.39700179 C8.80956227,5.61024927 9.22067517,5.45128296 9.47517364,4.66032866 L10.2543305,0.835444255 C10.4833791,-0.128046648 11.3095203,-0.0563179487 11.5033306,0.47680076 L14.858795,11.575363 C14.8627104,11.5908719 14.8666257,11.6063808 14.8666257,11.6238283 C14.9527637,13.0642181 13.8623356,14.3068694 12.4116944,14.4270634 C12.3862445,14.429002 12.358837,14.4251248 12.3333872,14.4173703 L1.19614279,10.9705156 C0.342594088,10.7165572 0.342594088,9.63481086 1.55831368,9.55726632 Z" id="Shape" fill="#2ECC71"></path>
                    </g>
                    <g id="Group" transform="translate(151.000000, 72.000000) rotate(10.000000) translate(-151.000000, -72.000000) translate(133.000000, 20.000000)">
                        <path d="M34.9867648,42.4771605 C38.7540911,51.9630123 19.6053382,100.231037 20.1341555,103.424198 C19.3926185,103.513926 10.7625587,92.3837037 10.7208099,91.4357037 C10.4882098,86.1397778 28.2970272,54.202321 28.173769,46.8445926 C28.0823194,41.3770123 13.8420249,16.898716 11.1959503,14.0410617 C10.267538,13.0384444 8.26359871,7.91807407 9.45443166,8.24577778 C15.8698205,10.0110864 29.5872618,31.0328889 34.9867648,42.4771605 Z" id="Shape" fill="#2ECC71"></path>
                        <path d="M11.3013162,1.06555556 L10.3649517,4.82439506 C10.2238012,5.38812346 9.45840773,5.77044444 8.97730327,5.23402469 L5.93958583,1.14553086 C5.36106765,0.443308642 4.17818684,0.98362963 4.52609296,2.11108642 L5.99723884,6.92520988 C6.1145329,7.54940741 5.88392085,7.92587654 5.04298205,8.04876543 L1.04305568,8.18920988 C0.0311458813,8.25553086 -0.0324712379,9.08064198 0.474477681,9.35958025 L11.1502255,14.4721481 C11.1661298,14.4799506 11.1820341,14.4858025 11.1979383,14.4877531 C12.6412517,14.8076543 14.078601,13.937679 14.4384353,12.5332346 C14.4443994,12.5078765 14.4463875,12.4805679 14.4424114,12.4552099 L12.7923424,0.942666667 C12.6750483,0.059037037 11.579641,-0.118469136 11.3013162,1.06555556 Z" id="Shape" fill="#2ECC71"></path>
                        <path d="M20.1341555,103.424198 C16.9612517,102.138741 10.0230097,92.305679 10.4007363,91.1450617 C14.2396318,79.3360247 22.4150943,64 28.5283019,46.6666667 C36,60.6666667 25.8113208,82.6666667 23.9650989,89.6879506 C19.6172665,104.089358 20.7385182,99.5970864 20.1341555,103.424198 Z" id="Shape" fill="#00993E" opacity="0.48"></path>
                    </g>
                    <g id="Group-2" transform="translate(169.000000, 211.000000) rotate(-31.000000) translate(-169.000000, -211.000000) translate(157.000000, 166.000000)">
                        <path d="M14.5202757,0.51352381 L0.201372973,8.91461905 C3.72085946,8.91461905 13.9321135,36.2401429 12.0860432,46.7849524 C9.80549189,59.8014762 6.84381081,70.6137619 6.86088649,73.9347619 C6.87227027,76.2795714 9.08641622,77.8512381 9.08641622,77.8512381 C9.08641622,77.8512381 15.7630054,54.2801429 16.6775027,49.0985238 C19.5177568,32.9894286 11.6743297,9.44371429 14.5202757,0.51352381 Z" id="Shape" fill="#2ECC71"></path>
                        <path d="M11.1487784,89.274619 C11.6193081,88.7806667 12.5148324,88.2105714 13.4710703,88.111 C14.4311027,88.0114286 15.0363405,88.0973333 16.2961459,88.8450952 C17.241,89.4054286 17.5806162,88.9778571 18.0416595,87.742 C18.2864108,87.0820952 18.8309351,86.1976667 19.8630649,85.4830952 C20.8914,84.7724286 21.5573514,84.8270952 22.6255297,84.7685238 C23.7487297,84.708 24.0162486,83.8079524 23.3882432,83.3471905 L10.6972216,72.039 C10.6801459,72.0292381 6.84381081,74.1514762 6.84570811,74.1846667 L9.37480541,89.315619 C9.38239459,89.9247619 10.1773622,90.2937619 11.1487784,89.274619 Z" id="Shape" fill="#2ECC71"></path>
                        <path d="M8.21176216,73.3588095 L10.6270216,72.0507143 C10.6270216,72.0507143 15.9053027,53.2414762 16.4555189,49.9341429 C16.4555189,49.9341429 13.0271027,65.397 8.21176216,73.3588095 Z" id="Shape" fill="#27C165"></path>
                        <path d="M20.0395135,80.4400952 L10.6137405,72.0409524 C10.5928703,72.0272857 8.20986486,73.3588095 8.20986486,73.3588095 C8.20986486,73.3588095 13.0878162,75.2409048 20.0395135,80.4400952 Z" id="Shape" fill="#27C165"></path>
                        <path d="M0.753486486,8.98685714 L14.2167081,1.78842857 L14.2224,1.89971429 C13.4520973,6.08171429 14.273627,12.5030952 15.2754,19.7054286 L15.2754,19.7093333 C7.81522703,10.7459524 2.3567027,10.8767619 2.3567027,10.8767619 C2.3567027,10.8767619 1.99431892,10.088 0.753486486,8.98685714 Z" id="Shape" fill="#00993E" opacity="0.34"></path>
                    </g>
                    <g id="Group-5" transform="translate(79.000000, 176.000000)">
                        <g id="Group" transform="translate(0.000000, 0.335664)">
                            <path d="M9.31997838,0.559408591 L23.6388811,9.42622178 C20.1193946,9.42622178 9.90814054,38.264008 11.7542108,49.3917602 C14.0347622,63.1284396 16.9964432,74.5373347 16.9793676,78.0427732 C16.9679838,80.51801 14.7538378,82.1753766 14.7538378,82.1753766 C14.7538378,82.1753766 8.07724865,57.3011149 7.16275135,51.8335744 C4.3224973,34.8313127 12.1659243,9.98457542 9.31997838,0.559408591 Z" id="Shape" fill="#2ECC71"></path>
                            <path d="M12.693373,94.2330629 C12.2228432,93.7120639 11.3273189,93.1104575 10.3710811,93.0042917 C9.41104865,92.8981259 8.80581081,92.9885634 7.54600541,93.7789091 C6.60115135,94.3706853 6.26153514,93.9204635 5.80049189,92.615017 C5.55574054,91.919041 5.01121622,90.9851748 3.97908649,90.2321838 C2.95075135,89.4831249 2.2848,89.5401399 1.21662162,89.4791928 C0.0934216216,89.4143137 -0.174097297,88.4647193 0.453908108,87.9791089 L13.1449297,76.0452827 C13.1620054,76.0354525 16.9983405,78.2747652 16.9964432,78.3081878 L14.4673459,94.2763157 C14.4578595,94.9172428 13.6628919,95.3084835 12.693373,94.2330629 Z" id="Shape" fill="#2ECC71"></path>
                            <path d="M15.6303892,77.4352687 L13.2151297,76.0551129 C13.2151297,76.0551129 7.93684865,56.206034 7.38663243,52.7143576 C7.38663243,52.7143576 10.8131514,69.0344056 15.6303892,77.4352687 Z" id="Shape" fill="#27C165"></path>
                            <path d="M3.80074054,84.9081638 L13.2265135,76.0452827 C13.2473838,76.0315205 15.6303892,77.4352687 15.6303892,77.4352687 C15.6303892,77.4352687 10.7524378,79.4229291 3.80074054,84.9081638 Z" id="Shape" fill="#27C165"></path>
                            <path d="M23.0867676,9.5028971 L9.62354595,1.90614186 L9.61785405,2.02213786 C10.3881568,6.43588412 9.56662703,13.2128032 8.56485405,20.8134905 L8.56485405,20.8174226 C16.025027,11.3588332 21.4835514,11.4964555 21.4835514,11.4964555 C21.4835514,11.4964555 21.8459351,10.6628571 23.0867676,9.5028971 Z" id="Shape" fill="#00993E" opacity="0.34"></path>
                        </g>
                    </g>
                    <g id="Group-3" transform="translate(69.000000, 98.000000)">
                        <g id="Group">
                            <path d="M82.1707692,33.7308916 C79.2523077,29.1217379 76.6666667,22.4599858 70,8.02877698 C68.4713846,4.71981176 72.3035897,2.6600989 75.3333333,0 C65.1151282,6.72604383 48.0153846,9.51427504 32.6225641,9.51427504 C17.2297436,9.51427504 15.5789744,20.6805709 5.3625641,13.9545271 C8.39230769,16.614626 13.4394872,18.8343829 13.4394872,22.4599858 C13.4394872,25.0388741 10.9733333,32.2178927 8.05487179,36.8288511 C4.6625641,42.1869472 0.225641026,53.5456056 0.225641026,59.9684631 C0.225641026,81.5145423 21.3064103,92.7649199 48.0733333,92.7649199 C74.8402564,92.7649199 90,78.4147781 90,56.8705036 C89.9982051,50.4476461 85.5630769,39.0889877 82.1707692,33.7308916 Z" id="Shape" fill="url(#radialGradient-1)"></path>
                            <path d="M72.6423077,35.7478475 C70.6446154,32.1980412 67.0203742,23.7165199 66,22.0791367 C63.544359,18.1385965 61.9269231,8.74076441 64,6.69064748 C66.0730769,4.64053055 55.8746154,18.1305575 45.3333333,18.1305575 C34.7920513,18.1305575 25.8205128,23.3117949 18.8241026,18.1305575 C20.8989744,20.1806744 24.3541026,21.8897068 24.3541026,24.6815473 C24.3541026,26.6685005 22.6651282,32.1980412 20.6674359,35.7478475 C18.3448718,39.8751516 15.3061538,48.6242421 15.3061538,53.5708711 C15.3061538,70.166712 29.7423077,78.8327872 48.0697436,78.8327872 C66.3971795,78.8327872 78,70.166712 78,53.5708711 C78.0035897,48.6242421 74.9648718,39.8751516 72.6423077,35.7478475 Z" id="Shape" fill="#3BE07E" opacity="0.26"></path>
                        </g>
                    </g>
                    <path d="M140.987474,111.767123 C140.277842,109.412314 135.726993,99.553171 136.273016,97 C129.923774,106.197307 111.27226,116.310549 99.2479268,122.302645 C87.2235939,128.294741 88.199996,123.633725 77.0055392,123.178082 C79.8184446,123.665149 77.2782222,129.094105 78.3525273,131.232877 C79.3105316,133.139899 72.1084161,141.24521 72,146 C78.3512132,137.024622 88.4549382,139.287671 103.945301,135.260274 C119.435665,131.232877 141.60249,113.80966 140.987474,111.767123 Z" id="Shape" fill="#1AAA54" opacity="0.3"></path>
                    <g id="Group-4" transform="translate(91.000000, 72.500000) rotate(10.000000) translate(-91.000000, -72.500000) translate(27.000000, 11.000000)">
                        <g id="Group" transform="translate(19.092187, 25.905105)">
                            <path d="M29.8721298,17.1326565 C3.87558415,37.3039423 -6.20041512,67.7913946 7.37062334,85.2314156 C13.5561024,93.1800967 23.5911898,97.0318805 35.1380668,96.9754655 C35.290025,96.9754655 35.4419832,96.9774108 35.5958897,96.9754655 C36.8076591,96.8023297 38.0116358,96.7342426 39.1941825,96.8023297 C51.9917926,95.767406 66.2369021,90.201773 79.0150304,80.2863477 C91.7951068,70.3709225 100.715834,57.9635099 104.882996,45.836227 C105.108985,44.6768012 105.473295,43.5271021 105.940859,42.3988018 C105.979823,42.2509556 106.01489,42.1050547 106.053854,41.9572084 C108.96249,30.7987075 107.703964,20.1362697 101.518485,12.1875886 C87.9454984,-5.25243243 55.8706237,-3.03862943 29.8721298,17.1326565 Z" id="Shape" fill="#2ECC71"></path>
                            <path d="M76.5914915,0.569986186 C75.6914312,0.521352553 74.78163,0.494117718 73.862088,0.496063063 C74.0198907,1.80138979 74.0315798,3.10282583 73.8796216,4.38091772 C73.1958096,10.1391399 69.4786776,15.3604468 63.7179023,17.6968066 C58.4792399,19.8191784 52.786651,19.0527123 48.407137,16.1502571 C52.4379263,20.8677195 59.8488121,20.9202438 65.5764683,18.5624853 C71.1404772,16.2728138 76.8876152,9.94460541 77.2850444,4.29921321 C87.6883383,4.37313634 96.8798628,7.70356757 103.08872,14.3975009 C102.656224,13.7283021 102.202297,13.0707754 101.707459,12.4346474 C95.9544761,5.04038979 86.9597181,1.1283003 76.5914915,0.569986186 Z" id="Shape" fill="#27C165"></path>
                            <path d="M2.25664459,58.2436396 C2.431981,57.3604529 2.62874742,56.4733754 2.85863295,55.5843526 C4.08598784,56.0590168 5.34646184,56.3936162 6.62446949,56.5609159 C12.3813484,57.3215459 18.3661647,55.0163117 22.0560221,50.0187195 C25.4107922,45.4743928 26.0731742,39.7764763 24.3392919,34.8216817 C27.9200511,39.887361 26.1413606,47.0715213 22.4378659,52.0302066 C18.8415212,56.8468817 11.2806254,60.8445664 5.7049274,59.8349321 C3.20540941,69.9176571 4.16586332,79.6366024 9.12788384,87.2973724 C8.58628914,86.7137688 8.0602799,86.1126571 7.56544157,85.4765291 C1.81051082,78.0842168 0.236379462,68.4139051 2.25664459,58.2436396 Z" id="Shape" fill="#27C165"></path>
                            <path d="M32.5489324,20.572027 C36.5349136,17.4789279 40.6670084,14.8235315 44.849756,12.5824937 C43.9886593,11.4639201 43.2444537,10.2286258 42.6775326,8.86299339 C38.3213968,11.1604462 34.0178619,13.9150553 29.8721298,17.1326565 C25.7244495,20.3502577 21.9878357,23.8324258 18.6817702,27.4799483 C19.8662651,28.3650805 20.8812681,29.3902775 21.7540538,30.5010697 C24.9646584,27.0052841 28.5629513,23.6651261 32.5489324,20.572027 Z" id="Shape" fill="#27C165"></path>
                            <g transform="translate(35.732912, 26.619219)" fill="#44A85F" id="Oval">
                                <ellipse transform="translate(1.669672, 7.588027) rotate(-37.847347) translate(-1.669672, -7.588027) " cx="1.66967233" cy="7.58802749" rx="1.32290251" ry="1"></ellipse>
                                <ellipse transform="translate(8.867808, 2.002006) rotate(-37.847347) translate(-8.867808, -2.002006) " cx="8.8678086" cy="2.00200588" rx="1.32290251" ry="1"></ellipse>
                            </g>
                            <g transform="translate(74.030930, 0.664865)" fill="#006D2C" id="Oval" opacity="0.17">
                                <ellipse transform="translate(5.282109, 14.269003) rotate(-37.847347) translate(-5.282109, -14.269003) " cx="5.2821087" cy="14.2690032" rx="3.4582503" ry="3.45321424"></ellipse>
                                <ellipse transform="translate(12.030279, 4.657907) rotate(-56.886780) translate(-12.030279, -4.657907) " cx="12.0302793" cy="4.65790698" rx="3.00996804" ry="3.00558478"></ellipse>
                                <ellipse transform="translate(18.186350, 12.378598) rotate(-56.886780) translate(-18.186350, -12.378598) " cx="18.1863502" cy="12.3785983" rx="2.24627388" ry="2.24300275"></ellipse>
                            </g>
                            <g transform="translate(0.000000, 58.360360)" fill="#006D2C" id="Oval" opacity="0.17">
                                <ellipse transform="translate(15.420455, 5.414984) rotate(-37.847347) translate(-15.420455, -5.414984) " cx="15.4204555" cy="5.41498354" rx="3.4582503" ry="3.45321424"></ellipse>
                                <ellipse transform="translate(4.405844, 9.569444) rotate(-18.808194) translate(-4.405844, -9.569444) " cx="4.40584393" cy="9.56944439" rx="3.00993172" ry="3.00554852"></ellipse>
                                <ellipse transform="translate(10.377008, 17.433790) rotate(-18.808194) translate(-10.377008, -17.433790) " cx="10.3770077" cy="17.4337905" rx="2.24624678" ry="2.24297569"></ellipse>
                            </g>
                            <g transform="translate(22.095635, 11.056456)" fill="#006D2C" opacity="0.17">
                                <ellipse id="Oval" transform="translate(12.290292, 12.009812) rotate(-5.629639) translate(-12.290292, -12.009812) " cx="12.2902918" cy="12.0098122" rx="1.88003985" ry="1.87730204"></ellipse>
                                <path d="M5.17956755,13.4043159 C6.72057982,12.2098739 6.99722171,9.99412553 5.80103773,8.4573027 C5.6607686,8.27638559 5.50296583,8.11686727 5.33737033,7.97096637 C3.5158198,9.4824997 1.7916784,11.050448 0.143516102,12.655358 C0.172738838,12.6962102 0.192220661,12.7428985 0.22339158,12.7837508 C1.42152374,14.3205736 3.64050347,14.598758 5.17956755,13.4043159 Z" id="Shape"></path>
                                <path d="M15.3899914,5.48286967 C16.9310037,4.28842763 17.2076456,2.07267928 16.0114616,0.535856456 C15.9802907,0.495004204 15.9393788,0.465824024 15.9062597,0.424971772 C13.9424919,1.62135916 11.9943095,2.90334174 10.0772981,4.29231832 C10.1766554,4.4887982 10.2935463,4.68138739 10.4357636,4.8623045 C11.6319476,6.39912733 13.8489791,6.67731171 15.3899914,5.48286967 Z" id="Shape"></path>
                            </g>
                            <g transform="translate(28.557107, 31.790390)" id="Shape">
                                <path d="M51.8255477,0.492615616 C35.3322356,24.1752498 24.1788915,31.4080438 0.48314923,38.8489898 C0.48314923,38.8489898 3.84960838,26.406561 22.02615,12.8280505 C39.6377187,-0.32832012 51.8255477,0.492615616 51.8255477,0.492615616 Z" fill="url(#linearGradient-2)"></path>
                                <path d="M0.48314923,38.8509351 C0.48314923,38.8528805 0.48314923,38.8509351 0.48314923,38.8509351 C27.1576624,66.9495033 74.186785,33.2794661 51.8255477,0.494560961 C51.8255477,0.494560961 51.8391849,0.494560961 51.8255477,0.494560961 C65.4900989,29.3615405 28.0323963,60.4676126 0.48314923,38.8509351 Z" fill="url(#linearGradient-3)"></path>
                                <path d="M52.2015469,25.2490805 C55.4530633,17.8645495 55.8602334,9.20581742 51.8274958,0.492615616 C51.8274958,0.492615616 41.8138384,16.1857165 30.101366,24.9358799 C17.9875679,33.9856264 0.485097413,38.8489898 0.485097413,38.8489898 C8.10249052,44.550797 16.4991566,46.4144378 24.365917,45.5137429 C25.7978311,41.1717321 29.717574,36.1002168 35.3263911,31.9079976 C41.2313319,27.4959544 47.545391,25.1576492 52.2015469,25.2490805 Z" fill="url(#linearGradient-4)"></path>
                                <path d="M52.2015469,25.2490805 C47.545391,25.1576492 41.2313319,27.4959544 35.3244429,31.9099429 C29.7156258,36.1002168 25.7958829,41.1736775 24.3639688,45.5156883 C36.5479014,44.1189303 47.4382409,36.0632553 52.2015469,25.2490805 Z" fill="#F58B02"></path>
                            </g>
                        </g>
                        <g id="Group" transform="translate(54.825099, 7.116517)">
                            <ellipse id="Oval" fill="#00993E" transform="translate(21.696146, 21.314600) rotate(-22.854776) translate(-21.696146, -21.314600) " cx="21.6961463" cy="21.3146001" rx="16.2733042" ry="16.2496062"></ellipse>
                            <ellipse id="Oval" fill="#2ECC71" transform="translate(20.909307, 20.995345) rotate(-22.854776) translate(-20.909307, -20.995345) " cx="20.9093074" cy="20.9953448" rx="15.673259" ry="15.6504348"></ellipse>
                            <ellipse id="Oval" fill="url(#radialGradient-5)" cx="20.9091921" cy="20.9829381" rx="12.9690501" ry="12.950164"></ellipse>
                            <path d="M19.9078263,15.1313393 C22.7385353,14.1392132 25.7699071,15.2130438 27.4278103,17.5357862 C27.3674167,17.2245309 27.2875412,16.9132757 27.178443,16.6059111 C25.9744663,13.1782126 22.2144743,11.3748775 18.7817769,12.5790462 C15.3490796,13.7812697 13.5431145,17.5357862 14.7490394,20.9634847 C14.9672358,21.5840498 15.2925823,22.1306919 15.6607888,22.6364817 C15.0178886,19.4675141 16.7654082,16.2324048 19.9078263,15.1313393 Z" id="Shape" fill="#2A5351"></path>
                        </g>
                        <path d="M3.80155322,70.6675015 C2.26443732,63.6876024 4.15417423,57.5422565 4.15417423,57.5422565 C2.41249918,56.7232661 0.79161144,57.6667586 0.79161144,57.6667586 C0.79161144,57.6667586 -0.106500637,63.8121045 2.16897638,70.7278072 L3.80155322,70.6675015 Z" id="Shape" fill="#44A85F"></path>
                        <g id="Group" transform="translate(4.789282, 44.078078)">
                            <ellipse id="Oval" fill="#00993E" transform="translate(23.116753, 23.227446) rotate(-54.375741) translate(-23.116753, -23.227446) " cx="23.1167528" cy="23.2274463" rx="16.2292733" ry="16.2056395"></ellipse>
                            <ellipse id="Oval" fill="#2ECC71" transform="translate(22.977254, 22.391805) rotate(-54.375741) translate(-22.977254, -22.391805) " cx="22.9772542" cy="22.3918055" rx="15.6311477" ry="15.6083849"></ellipse>
                            <ellipse id="Oval" fill="url(#radialGradient-6)" cx="23.0353085" cy="22.4419471" rx="12.9339828" ry="12.9151477"></ellipse>
                            <path d="M17.0738704,20.3390288 C15.478309,22.8777045 15.8582046,26.0661255 17.7615788,28.1943333 C17.4712996,28.0659405 17.1849168,27.9200396 16.9082749,27.7469039 C13.8262503,25.8171213 12.8969674,21.7571856 14.8295643,18.6796492 C16.7621612,15.6021129 20.8280178,14.6741832 23.9100423,16.6039658 C24.4691707,16.9541279 24.9308899,17.3898853 25.3419564,17.8606589 C22.3904601,16.5358787 18.84282,17.5241141 17.0738704,20.3390288 Z" id="Shape" fill="#2A5351"></path>
                        </g>
                        <path d="M87.0162154,6.41663544 C80.538509,3.37800601 74.119248,3.86045165 74.119248,3.86045165 C73.7042852,1.98319339 74.984241,0.61367027 74.984241,0.61367027 C74.984241,0.61367027 81.1853055,1.09611592 87.4350746,4.84090571 L87.0162154,6.41663544 Z" id="Shape" fill="#44A85F"></path>
                    </g>
                </g>
            </g>
        </g>
    </g>
</svg>