<?xml version="1.0" encoding="UTF-8"?>
<svg width="184px" height="55px" viewBox="0 0 184 55" version="1.1" xmlns="http://www.w3.org/2000/svg" xmlns:xlink="http://www.w3.org/1999/xlink">
    <!-- Generator: Sketch 49.2 (51160) - http://www.bohemiancoding.com/sketch -->
    <title>logo@2x</title>
    <desc>Created with Sketch.</desc>
    <defs></defs>
    <g id="Page-1" stroke="none" stroke-width="1" fill="none" fill-rule="evenodd">
        <g id="Desktop-1" transform="translate(-632.000000, -94.000000)">
            <g id="logo" transform="translate(632.000000, 95.000000)">
                <path d="M47.1051436,30.1163833 L6.3504588,53.1149311 C4.4265226,54.2006404 1.98672289,53.5211232 0.901013627,51.597187 C0.562486009,50.9972975 0.384608286,50.320153 0.384608286,49.6313364 L0.384608286,3.63424087 C0.384608286,1.42510187 2.17546929,-0.365759128 4.38460829,-0.365759128 C5.07342489,-0.365759128 5.75056934,-0.187881405 6.3504588,0.150646213 L47.1051436,23.149194 C49.0290798,24.2349033 49.708597,26.674703 48.6228878,28.5986392 C48.2646937,29.2333787 47.7398832,29.7581892 47.1051436,30.1163833 Z" id="Triangle-Copy" fill="#00CB5B"></path>
                <g id="SVGID_75_-link-Copy" transform="translate(6.000000, 14.000000)" fill="#FFFFFF">
                    <path d="M21.4822888,4.88544474 C20.0108992,5.82884097 18.2779292,6.90700809 17.3297003,8.05256065 C17.133515,8.2884097 16.9373297,8.55795148 16.773842,8.79380054 C16.773842,9.3328841 16.3814714,9.77088949 15.8910082,9.83827493 C15.8583106,10.2425876 15.8256131,10.680593 15.8256131,11.0512129 C15.6948229,12.9380054 15.9237057,15.532345 16.0871935,17.4528302 C16.0871935,18.0256065 15.6294278,18.4973046 15.0735695,18.4973046 C14.5177112,18.4973046 14.0599455,18.0929919 14.0599455,17.5202156 C14.3542234,16.4083558 14.6485014,15.0606469 14.8773842,13.7803235 C14.386921,13.2412399 14.1253406,13.0727763 13.0790191,13.3423181 L15.3024523,9.77088949 C15.2697548,9.73719677 15.2370572,9.73719677 15.2043597,9.70350404 C14.7792916,10.1752022 14.3215259,10.680593 13.8637602,11.1522911 C11.9346049,13.2412399 8.56675749,17.8571429 8.56675749,17.8571429 C8.56675749,17.8571429 7.97820163,18.6320755 7.42234332,18.6320755 C6.86648501,18.6320755 6.40871935,18.1603774 6.40871935,17.5876011 C6.40871935,17.2169811 6.67029973,16.7789757 7.22615804,16.3072776 C9.15531335,14.8247978 10.7247956,13.5107817 11.9346049,12.4326146 C12.0980926,11.6913747 12.2288828,11.2533693 10.7901907,10.680593 L14.8119891,9.29919137 C14.7792916,9.26549865 14.7792916,9.23180593 14.746594,9.16442049 C13.6348774,9.29919137 12.4904632,9.53504043 11.3787466,9.73719677 C10.2997275,9.97304582 8.5013624,10.4447439 7.42234332,10.5795148 C6.86648501,10.5795148 6.40871935,10.1078167 6.40871935,9.53504043 C6.40871935,8.96226415 6.86648501,8.49056604 7.42234332,8.49056604 C8.33787466,8.5916442 9.71117166,8.69272237 11.5749319,8.82749326 C13.0463215,8.86118598 14.0926431,8.86118598 14.746594,8.76010782 C14.8119891,8.22102426 15.2370572,7.81671159 15.760218,7.81671159 C17.0681199,6.67115903 18.5722071,4.61590296 19.7166213,2.96495957 C17.6239782,1.11185984 14.9427793,0 12,0 C5.36239782,0 0,5.59299191 0,12.5 C0,19.4070081 5.36239782,25 12,25 C18.6049046,25 24,19.4070081 24,12.5 C23.9673025,9.6361186 23.0517711,7.00808625 21.4822888,4.88544474" id="SVGID_75_"></path>
                </g>
                <path d="M85.272,40 L85.2,26.644 L78.72,37.516 L75.552,37.516 L69.108,27.004 L69.108,40 L62.52,40 L62.52,14.8 L68.388,14.8 L77.244,29.344 L85.884,14.8 L91.752,14.8 L91.824,40 L85.272,40 Z M108.492,40.504 C104.747981,40.504 101.83801,39.4840102 99.762,37.444 C97.6859896,35.4039898 96.648,32.5120187 96.648,28.768 L96.648,14.8 L103.776,14.8 L103.776,28.552 C103.776,32.5840202 105.371984,34.6 108.564,34.6 C111.732016,34.6 113.316,32.5840202 113.316,28.552 L113.316,14.8 L120.336,14.8 L120.336,28.768 C120.336,32.5120187 119.29801,35.4039898 117.222,37.444 C115.14599,39.4840102 112.236019,40.504 108.492,40.504 Z M134.016,40.504 C131.97599,40.504 129.99601,40.2520025 128.076,39.748 C126.15599,39.2439975 124.596006,38.5720042 123.396,37.732 L125.736,32.476 C126.864006,33.2200037 128.171993,33.8199977 129.66,34.276 C131.148007,34.7320023 132.611993,34.96 134.052,34.96 C136.788014,34.96 138.156,34.2760068 138.156,32.908 C138.156,32.1879964 137.766004,31.6540017 136.986,31.306 C136.205996,30.9579983 134.952009,30.5920019 133.224,30.208 C131.327991,29.799998 129.744006,29.3620023 128.472,28.894 C127.199994,28.4259977 126.108005,27.6760052 125.196,26.644 C124.283995,25.6119948 123.828,24.2200088 123.828,22.468 C123.828,20.9319923 124.247996,19.5460062 125.088,18.31 C125.928004,17.0739938 127.181992,16.0960036 128.85,15.376 C130.518008,14.6559964 132.563988,14.296 134.988,14.296 C136.644008,14.296 138.275992,14.4819981 139.884,14.854 C141.492008,15.2260019 142.907994,15.7719964 144.132,16.492 L141.936,21.784 C139.535988,20.4879935 137.208011,19.84 134.952,19.84 C133.535993,19.84 132.504003,20.0499979 131.856,20.47 C131.207997,20.8900021 130.884,21.4359966 130.884,22.108 C130.884,22.7800034 131.267996,23.2839983 132.036,23.62 C132.804004,23.9560017 134.039991,24.3039982 135.744,24.664 C137.66401,25.072002 139.253994,25.5099977 140.514,25.978 C141.774006,26.4460023 142.865995,27.1899949 143.79,28.21 C144.714005,29.2300051 145.176,30.6159912 145.176,32.368 C145.176,33.8800076 144.756004,35.2479939 143.916,36.472 C143.075996,37.6960061 141.816008,38.6739963 140.136,39.406 C138.455992,40.1380037 136.416012,40.504 134.016,40.504 Z M148.452,14.8 L155.58,14.8 L155.58,40 L148.452,40 L148.452,14.8 Z M173.22,40.504 C170.579987,40.504 168.21001,39.9460056 166.11,38.83 C164.009989,37.7139944 162.360006,36.16001 161.16,34.168 C159.959994,32.17599 159.36,29.9200126 159.36,27.4 C159.36,24.8799874 159.959994,22.62401 161.16,20.632 C162.360006,18.63999 164.009989,17.0860056 166.11,15.97 C168.21001,14.8539944 170.579987,14.296 173.22,14.296 C175.524012,14.296 177.599991,14.7039959 179.448,15.52 C181.296009,16.3360041 182.831994,17.5119923 184.056,19.048 L179.52,23.152 C177.887992,21.1839902 175.908012,20.2 173.58,20.2 C172.211993,20.2 170.994005,20.499997 169.926,21.1 C168.857995,21.700003 168.030003,22.5459945 167.442,23.638 C166.853997,24.7300055 166.56,25.9839929 166.56,27.4 C166.56,28.8160071 166.853997,30.0699945 167.442,31.162 C168.030003,32.2540055 168.857995,33.099997 169.926,33.7 C170.994005,34.300003 172.211993,34.6 173.58,34.6 C175.908012,34.6 177.887992,33.6160098 179.52,31.648 L184.056,35.752 C182.831994,37.2880077 181.296009,38.4639959 179.448,39.28 C177.599991,40.0960041 175.524012,40.504 173.22,40.504 Z" id="Music-Copy" fill="#FFFFFF"></path>
            </g>
        </g>
    </g>
</svg>