<?xml version="1.0" encoding="UTF-8"?>
<svg width="180px" height="55px" viewBox="0 0 180 55" version="1.1" xmlns="http://www.w3.org/2000/svg" xmlns:xlink="http://www.w3.org/1999/xlink">
    <!-- Generator: Sketch 49.2 (51160) - http://www.bohemiancoding.com/sketch -->
    <title>lfmusiclogov2@2x</title>
    <desc>Created with Sketch.</desc>
    <defs></defs>
    <g id="Page-1" stroke="none" stroke-width="1" fill="none" fill-rule="evenodd">
        <g id="Desktop-3" transform="translate(-632.000000, -94.000000)">
            <g id="lfmusiclogov2" transform="translate(632.000000, 95.000000)">
                <path d="M47.1051436,30.1163833 L6.3504588,53.1149311 C4.4265226,54.2006404 1.98672289,53.5211232 0.901013627,51.597187 C0.562486009,50.9972975 0.384608286,50.320153 0.384608286,49.6313364 L0.384608286,3.63424087 C0.384608286,1.42510187 2.17546929,-0.365759128 4.38460829,-0.365759128 C5.07342489,-0.365759128 5.75056934,-0.187881405 6.3504588,0.150646213 L47.1051436,23.149194 C49.0290798,24.2349033 49.708597,26.674703 48.6228878,28.5986392 C48.2646937,29.2333787 47.7398832,29.7581892 47.1051436,30.1163833 Z" id="Triangle-Copy" fill="#00CB5B"></path>
                <g id="SVGID_75_-link-Copy" transform="translate(6.000000, 14.000000)" fill="#FFFFFF">
                    <path d="M21.4822888,4.88544474 C20.0108992,5.82884097 18.2779292,6.90700809 17.3297003,8.05256065 C17.133515,8.2884097 16.9373297,8.55795148 16.773842,8.79380054 C16.773842,9.3328841 16.3814714,9.77088949 15.8910082,9.83827493 C15.8583106,10.2425876 15.8256131,10.680593 15.8256131,11.0512129 C15.6948229,12.9380054 15.9237057,15.532345 16.0871935,17.4528302 C16.0871935,18.0256065 15.6294278,18.4973046 15.0735695,18.4973046 C14.5177112,18.4973046 14.0599455,18.0929919 14.0599455,17.5202156 C14.3542234,16.4083558 14.6485014,15.0606469 14.8773842,13.7803235 C14.386921,13.2412399 14.1253406,13.0727763 13.0790191,13.3423181 L15.3024523,9.77088949 C15.2697548,9.73719677 15.2370572,9.73719677 15.2043597,9.70350404 C14.7792916,10.1752022 14.3215259,10.680593 13.8637602,11.1522911 C11.9346049,13.2412399 8.56675749,17.8571429 8.56675749,17.8571429 C8.56675749,17.8571429 7.97820163,18.6320755 7.42234332,18.6320755 C6.86648501,18.6320755 6.40871935,18.1603774 6.40871935,17.5876011 C6.40871935,17.2169811 6.67029973,16.7789757 7.22615804,16.3072776 C9.15531335,14.8247978 10.7247956,13.5107817 11.9346049,12.4326146 C12.0980926,11.6913747 12.2288828,11.2533693 10.7901907,10.680593 L14.8119891,9.29919137 C14.7792916,9.26549865 14.7792916,9.23180593 14.746594,9.16442049 C13.6348774,9.29919137 12.4904632,9.53504043 11.3787466,9.73719677 C10.2997275,9.97304582 8.5013624,10.4447439 7.42234332,10.5795148 C6.86648501,10.5795148 6.40871935,10.1078167 6.40871935,9.53504043 C6.40871935,8.96226415 6.86648501,8.49056604 7.42234332,8.49056604 C8.33787466,8.5916442 9.71117166,8.69272237 11.5749319,8.82749326 C13.0463215,8.86118598 14.0926431,8.86118598 14.746594,8.76010782 C14.8119891,8.22102426 15.2370572,7.81671159 15.760218,7.81671159 C17.0681199,6.67115903 18.5722071,4.61590296 19.7166213,2.96495957 C17.6239782,1.11185984 14.9427793,0 12,0 C5.36239782,0 0,5.59299191 0,12.5 C0,19.4070081 5.36239782,25 12,25 C18.6049046,25 24,19.4070081 24,12.5 C23.9673025,9.6361186 23.0517711,7.00808625 21.4822888,4.88544474" id="SVGID_75_"></path>
                </g>
                <path d="M88.224,40 L88.188,18.436 L77.64,36.652 L76.74,36.652 L66.192,18.508 L66.192,40 L64.392,40 L64.392,14.8 L65.94,14.8 L77.208,34.276 L88.476,14.8 L89.988,14.8 L90.024,40 L88.224,40 Z M108.672,40.18 C105.479984,40.18 103.002009,39.2560092 101.238,37.408 C99.4739912,35.5599908 98.592,32.8600178 98.592,29.308 L98.592,14.8 L100.428,14.8 L100.428,29.236 C100.428,32.3320155 101.135993,34.6479923 102.552,36.184 C103.968007,37.7200077 106.019987,38.488 108.708,38.488 C111.372013,38.488 113.411993,37.7200077 114.828,36.184 C116.244007,34.6479923 116.952,32.3320155 116.952,29.236 L116.952,14.8 L118.788,14.8 L118.788,29.308 C118.788,32.8600178 117.900009,35.5599908 116.124,37.408 C114.347991,39.2560092 111.864016,40.18 108.672,40.18 Z M133.98,40.18 C132.131991,40.18 130.374008,39.8620032 128.706,39.226 C127.037992,38.5899968 125.736005,37.768005 124.8,36.76 L125.628,35.392 C126.516004,36.3280047 127.709992,37.0899971 129.21,37.678 C130.710008,38.2660029 132.287992,38.56 133.944,38.56 C136.344012,38.56 138.155994,38.1040046 139.38,37.192 C140.604006,36.2799954 141.216,35.0920073 141.216,33.628 C141.216,32.4999944 140.892003,31.6000034 140.244,30.928 C139.595997,30.2559966 138.792005,29.7400018 137.832,29.38 C136.871995,29.0199982 135.576008,28.6480019 133.944,28.264 C132.095991,27.8079977 130.614006,27.3640022 129.498,26.932 C128.381994,26.4999978 127.434004,25.8340045 126.654,24.934 C125.873996,24.0339955 125.484,22.8280076 125.484,21.316 C125.484,20.0919939 125.807997,18.9700051 126.456,17.95 C127.104003,16.9299949 128.093993,16.120003 129.426,15.52 C130.758007,14.919997 132.41999,14.62 134.412,14.62 C135.804007,14.62 137.171993,14.823998 138.516,15.232 C139.860007,15.640002 141.023995,16.1919965 142.008,16.888 L141.324,18.364 C140.315995,17.6679965 139.206006,17.1400018 137.994,16.78 C136.781994,16.4199982 135.588006,16.24 134.412,16.24 C132.083988,16.24 130.320006,16.7079953 129.12,17.644 C127.919994,18.5800047 127.32,19.7919926 127.32,21.28 C127.32,22.4080056 127.643997,23.3079966 128.292,23.98 C128.940003,24.6520034 129.743995,25.1679982 130.704,25.528 C131.664005,25.8880018 132.971992,26.271998 134.628,26.68 C136.476009,27.1360023 137.951994,27.5799978 139.056,28.012 C140.160006,28.4440022 141.101996,29.0979956 141.882,29.974 C142.662004,30.8500044 143.052,32.0319926 143.052,33.52 C143.052,34.7440061 142.722003,35.859995 142.062,36.868 C141.401997,37.876005 140.388007,38.679997 139.02,39.28 C137.651993,39.880003 135.97201,40.18 133.98,40.18 Z M149.28,14.8 L151.116,14.8 L151.116,40 L149.28,40 L149.28,14.8 Z M170.556,40.18 C168.083988,40.18 165.85801,39.6280055 163.878,38.524 C161.89799,37.4199945 160.338006,35.8960097 159.198,33.952 C158.057994,32.0079903 157.488,29.8240121 157.488,27.4 C157.488,24.9759879 158.057994,22.7920097 159.198,20.848 C160.338006,18.9039903 161.89799,17.3800055 163.878,16.276 C165.85801,15.1719945 168.083988,14.62 170.556,14.62 C172.380009,14.62 174.059992,14.9139971 175.596,15.502 C177.132008,16.0900029 178.439995,16.9599942 179.52,18.112 L178.368,19.3 C176.35199,17.30799 173.772016,16.312 170.628,16.312 C168.515989,16.312 166.596009,16.7919952 164.868,17.752 C163.139991,18.7120048 161.784005,20.0379915 160.8,21.73 C159.815995,23.4220085 159.324,25.3119896 159.324,27.4 C159.324,29.4880104 159.815995,31.3779915 160.8,33.07 C161.784005,34.7620085 163.139991,36.0879952 164.868,37.048 C166.596009,38.0080048 168.515989,38.488 170.628,38.488 C173.748016,38.488 176.32799,37.4800101 178.368,35.464 L179.52,36.652 C178.439995,37.8040058 177.126008,38.679997 175.578,39.28 C174.029992,39.880003 172.356009,40.18 170.556,40.18 Z" id="Music-Copy" fill="#FFFFFF"></path>
            </g>
        </g>
    </g>
</svg>