<?xml version="1.0" encoding="UTF-8"?>
<svg width="217px" height="199px" viewBox="0 0 217 199" version="1.1" xmlns="http://www.w3.org/2000/svg" xmlns:xlink="http://www.w3.org/1999/xlink">
    <!-- Generator: Sketch 49.2 (51160) - http://www.bohemiancoding.com/sketch -->
    <title>Group 11@2x</title>
    <desc>Created with Sketch.</desc>
    <defs>
        <radialGradient cx="49.9994523%" cy="50.0034106%" fx="49.9994523%" fy="50.0034106%" r="135.233171%" gradientTransform="translate(0.499995,0.500034),scale(0.360475,1.000000),translate(-0.499995,-0.500034)" id="radialGradient-1">
            <stop stop-color="#1D7F45" offset="22.24%"></stop>
            <stop stop-color="#138641" offset="79.44%"></stop>
            <stop stop-color="#0E893F" offset="100%"></stop>
        </radialGradient>
        <radialGradient cx="489.77%" cy="517.960676%" fx="489.77%" fy="517.960676%" r="545.94%" id="radialGradient-2">
            <stop stop-color="#2ECC71" offset="47.02%"></stop>
            <stop stop-color="#28C266" offset="95.77%"></stop>
            <stop stop-color="#27C165" offset="100%"></stop>
        </radialGradient>
        <radialGradient cx="-4817.54999%" cy="-647.762657%" fx="-4817.54999%" fy="-647.762657%" r="18067.7804%" gradientTransform="translate(-48.175500,-6.477627),scale(0.201569,1.000000),translate(48.175500,6.477627)" id="radialGradient-3">
            <stop stop-color="#2ECC71" offset="47.02%"></stop>
            <stop stop-color="#28C266" offset="95.77%"></stop>
            <stop stop-color="#27C165" offset="100%"></stop>
        </radialGradient>
        <radialGradient cx="50.1695551%" cy="52.8921954%" fx="50.1695551%" fy="52.8921954%" r="63.9244315%" gradientTransform="translate(0.501696,0.528922),scale(0.822253,1.000000),translate(-0.501696,-0.528922)" id="radialGradient-4">
            <stop stop-color="#2ECC71" offset="47.02%"></stop>
            <stop stop-color="#28C266" offset="95.77%"></stop>
            <stop stop-color="#27C165" offset="100%"></stop>
        </radialGradient>
        <radialGradient cx="50.0031642%" cy="49.9974687%" fx="50.0031642%" fy="49.9974687%" r="50.0107581%" gradientTransform="translate(0.500032,0.499975),scale(1.000000,0.996139),translate(-0.500032,-0.499975)" id="radialGradient-5">
            <stop stop-color="#FFFFFF" offset="51.67%"></stop>
            <stop stop-color="#F7F7F7" offset="73.7%"></stop>
            <stop stop-color="#E6E7E8" offset="100%"></stop>
        </radialGradient>
        <radialGradient cx="50.0025313%" cy="49.9974687%" fx="50.0025313%" fy="49.9974687%" r="50.0107581%" gradientTransform="translate(0.500025,0.499975),scale(1.000000,0.996139),translate(-0.500025,-0.499975)" id="radialGradient-6">
            <stop stop-color="#FFFFFF" offset="51.67%"></stop>
            <stop stop-color="#F7F7F7" offset="73.7%"></stop>
            <stop stop-color="#E6E7E8" offset="100%"></stop>
        </radialGradient>
        <linearGradient x1="50.0005145%" y1="100.000076%" x2="50.0005145%" y2="-49.7878009%" id="linearGradient-7">
            <stop stop-color="#2ECC71" offset="0%"></stop>
            <stop stop-color="#2AC66A" offset="39.69%"></stop>
            <stop stop-color="#27C165" offset="100%"></stop>
        </linearGradient>
        <linearGradient x1="50.0005145%" y1="99.9986927%" x2="50.0005145%" y2="-0.00261720502%" id="linearGradient-8">
            <stop stop-color="#086C30" stop-opacity="0.259171196" offset="0%"></stop>
            <stop stop-color="#4AC37D" stop-opacity="0" offset="100%"></stop>
        </linearGradient>
    </defs>
    <g id="Page-1" stroke="none" stroke-width="1" fill="none" fill-rule="evenodd">
        <g id="If-no-playlist" transform="translate(-609.000000, -329.000000)">
            <g id="Group-11" transform="translate(609.000000, 325.000000)">
                <g id="Group" transform="translate(0.000000, 125.000000)" fill-rule="nonzero">
                    <path d="M107.861754,0.122309337 C56.427087,0.122309337 13.3235958,12.8538774 1.89638598,29.9758225 C1.60826104,30.4066294 1.85273068,31.0335759 2.32071544,31.0861133 C2.32071544,31.0861133 14.6018228,35.7549387 33.3316902,39.6672252 C33.9917582,39.8055738 34.0773226,40.8283022 33.4312242,41.0314469 C33.4312242,41.0314469 19.2153143,45.4533464 1.37077624,51.306015 C0.827704376,51.4846422 0.761348329,52.3462559 1.27997322,52.6124455 C20.9493025,62.734655 70.7530083,77.9407356 107.863501,77.9407356 C168.029227,77.9407356 216.802668,61.1235075 216.802668,39.6357028 C216.802668,39.0612937 214.494176,37.1331703 214.426074,36.5657662 C214.357971,35.9983621 216.236895,35.1525096 216.100691,34.5921105 C211.268923,14.6961896 164.814451,0.122309337 107.861754,0.122309337 Z" id="Shape" fill="url(#radialGradient-1)"></path>
                    <path d="M204.762538,33.080784 C204.762538,33.080784 199.316103,18.7923571 96.6318666,34.1017612 C96.6318666,34.1017612 184.328368,23.6800884 204.762538,33.080784 Z" id="Shape" fill="#00993E" opacity="0.23"></path>
                </g>
                <g id="Group" transform="translate(52.000000, 0.000000)">
                    <g transform="translate(12.202703, 154.000000)" fill-rule="nonzero" id="Shape">
                        <g transform="translate(26.148649, 0.000000)">
                            <path d="M1.0442027,16.26025 C1.49744595,16.9165 1.95068919,18.09075 1.87572973,19.24575 C1.80077027,20.406 1.58983784,21.10775 0.524716216,22.457 C-0.273689189,23.4685 0.130743243,23.95675 1.40156757,24.74425 C2.07968919,25.16425 2.94782432,25.98325 3.53355405,27.35 C4.1157973,28.70975 3.92927027,29.49025 3.78806757,30.7695 C3.63814865,32.11525 4.57601351,32.6105 5.20358108,31.95425 L20.0751892,19.104 C20.0891351,19.08475 18.4940676,14.113 18.4592027,14.1095 L1.3422973,14.1445 C0.669405405,14.036 0.109824324,14.9075 1.0442027,16.26025 Z" fill="#2ECC71"></path>
                            <path d="M1.87572973,19.24575 C1.81994595,20.1015 1.77636486,20.07 1.54277027,20.84525 L16.7822027,21.94775 C16.7961486,21.9285 18.2552432,20.7105 18.2186351,20.707 L1.87572973,19.24575 Z" fill="#00993E" opacity="0.48"></path>
                            <path d="M18.0286216,14.07975 C18.0878919,16.26725 18.1454189,18.45475 18.2081757,20.64225 C42.7356081,19.7795 63.0513649,17.81425 74.1331622,12.50825 C79.2251757,10.0705 78.3535541,0.1585 71.1330405,0.10775 C65.9974459,0.06925 36.7684865,12.52225 18.0286216,14.07975 Z" fill="#2ECC71"></path>
                        </g>
                        <path d="M59.5352432,14.84625 C59.6921351,14.86025 59.8542568,14.88125 60.0094054,14.8935 C60.0094054,14.8935 60.0094054,14.9145 60.0094054,14.92675 L60.1227162,14.92675 C60.1279459,14.73425 60.1331757,14.5435 60.1384054,14.351 L59.7113108,14.351 C59.7025946,14.34925 59.6363514,14.54175 59.5352432,14.84625 Z" fill="url(#radialGradient-2)"></path>
                        <g transform="translate(0.000000, 0.277027)">
                            <path d="M76.8282162,14.107223 L60.1384054,14.073973 L60.1384054,14.040723 C41.3985405,12.484973 12.1713243,0.031972973 7.03398649,0.068722973 C3.38712162,0.094972973 1.3667027,2.63597297 0.90822973,5.45872297 C1.5357973,2.87747297 3.50914865,0.668972973 6.90324324,0.644472973 C11.997,0.607722973 40.7779459,12.848973 59.5335,14.570973 C59.6903919,14.584973 59.8525135,14.605973 60.0076622,14.618223 C60.0076622,14.618223 60.0076622,14.639223 60.0076622,14.651473 L60.120973,14.651473 L76.697473,14.684723 C77.1210811,14.614723 77.4976216,14.940223 77.4836757,15.528223 C77.8305811,14.584973 77.3738514,14.017973 76.8282162,14.107223 Z" fill="url(#radialGradient-3)"></path>
                            <path d="M77.5115676,22.993723 C76.4464459,21.644473 76.2355135,20.942723 76.1605541,19.782473 C76.1239459,19.201473 76.2198243,18.616973 76.3802027,18.097223 C76.5248919,17.348223 76.8160135,16.663973 77.1228243,16.221223 C77.2971486,15.969223 77.4034865,15.741723 77.4836757,15.526473 C77.4976216,14.938473 77.1210811,14.612973 76.697473,14.682973 L60.120973,14.649723 L60.0076622,14.649723 C60.0076622,14.639223 60.0076622,14.628723 60.0076622,14.628723 C59.8525135,14.604223 59.6903919,14.584973 59.5335,14.570973 C40.7796892,12.850723 11.997,0.609472973 6.90324324,0.644472973 C3.50914865,0.668972973 1.5357973,2.87747297 0.90822973,5.45872297 C0.200472973,8.36897297 1.20632432,11.753473 3.90312162,13.044973 C14.970973,18.345723 35.2518649,20.310973 59.7374595,21.175473 L72.8344459,32.492723 C73.3975135,33.080723 74.2046351,32.734223 74.2551892,31.684223 C74.2604189,31.565223 74.2639054,31.444473 74.2482162,31.307973 C74.1296757,30.245723 74.0076486,29.508973 74.2952838,28.518473 C74.3545541,28.315473 74.4033649,28.119473 74.5027297,27.888473 C75.0884595,26.521723 75.9565946,25.702723 76.6347162,25.282723 C77.5324865,24.724473 77.987473,24.314973 77.9003108,23.767223 C77.8654459,23.537973 77.7451622,23.289473 77.5115676,22.993723 Z" fill="#2ECC71"></path>
                        </g>
                    </g>
                    <g transform="translate(16.689189, 88.250000)" fill-rule="nonzero" id="Shape">
                        <path d="M85.5101892,22.7885 C82.6756757,18.319 80.2804595,11.3575 80.2804595,8.855 C80.2804595,5.33925 85.1824595,3.18675 88.1250541,0.60725 C78.2007703,7.1295 61.5928919,9.83325 46.6428378,9.83325 C31.6927838,9.83325 15.0831622,7.1295 5.16062162,0.60725 C8.10321622,3.18675 13.0052162,5.33925 13.0052162,8.855 C13.0052162,11.35575 10.61,18.31725 7.77548649,22.7885 C4.48075676,27.98425 0.171459459,38.99875 0.171459459,45.227 C0.171459459,66.12025 20.6458514,77.02975 46.6428378,77.02975 C72.6398243,77.02975 93.1142162,66.1185 93.1142162,45.227 C93.1142162,38.99875 88.8066622,27.98425 85.5101892,22.7885 Z" fill="url(#radialGradient-4)"></path>
                        <path d="M73.2586757,21.74025 C71.3184459,18.298 69.6780541,12.936 69.6780541,11.00925 C69.6780541,8.30025 73.0355405,6.64475 75.0489865,4.65675 C68.2538243,9.681 56.8809054,11.7635 46.6428378,11.7635 C36.4047703,11.7635 25.0318514,9.681 18.2366892,4.65675 C20.2518784,6.64475 23.6076216,8.302 23.6076216,11.00925 C23.6076216,12.936 21.9672297,18.298 20.027,21.74025 C17.7712432,25.7425 14.8199324,34.2265 14.8199324,39.02325 C14.8199324,55.11625 28.8408378,63.51975 46.6410946,63.51975 C64.4413514,63.51975 78.4622568,55.11625 78.4622568,39.02325 C78.4657432,34.2265 75.5144324,25.7425 73.2586757,21.74025 Z" fill="#3BE07E" opacity="0.26"></path>
                        <path d="M84.6002162,21.21875 C82.1823378,16.82625 80.2822027,11.06525 80.2822027,8.8375 C80.2822027,6.3385 82.7593514,4.529 85.2487027,2.76325 C74.6149189,8.40175 61.2198378,11.76175 46.6428378,11.76175 C32.0658378,11.76175 18.6707568,8.40175 8.03697297,2.76325 C10.5263243,4.52725 13.0052162,6.3385 13.0052162,8.8375 C13.0052162,11.06525 11.1050811,16.82625 8.6872027,21.21875 C19.2146486,15.7885 32.3674189,12.733 46.6445811,12.733 C60.92,12.733 74.0727703,15.7885 84.6002162,21.21875 Z" fill="#1AAA54" opacity="0.3"></path>
                    </g>
                    <g>
                        <path d="M63.3337703,15.6705 C28.7861757,15.6705 0.777486486,34.55825 0.777486486,57.85775 C0.777486486,68.47675 6.60863514,78.1735 16.2139054,85.58825 C16.3411622,85.68625 16.4649324,85.786 16.5921892,85.884 C17.7078649,86.52275 18.7503243,87.2455 19.6847027,88.0645 C30.9565135,95.47225 46.3493514,100.04325 63.332027,100.04325 C80.3147027,100.04325 95.7075405,95.47225 106.979351,88.0645 C107.915473,87.24375 108.957932,86.521 110.071865,85.884 C110.200865,85.786 110.324635,85.68625 110.450149,85.58825 C120.055419,78.17175 125.886568,68.47675 125.886568,57.85775 C125.888311,34.55825 97.8813649,15.6705 63.3337703,15.6705 Z" id="Shape" fill="#2ECC71" fill-rule="nonzero"></path>
                        <path d="M112.725081,32.06975 C112.010351,31.44675 111.274703,30.836 110.511162,30.2445 C109.799919,31.43275 108.970135,32.5265 108.021811,33.4925 C103.742149,37.84825 97.2956351,39.796 91.016473,38.01625 C85.3056081,36.39925 81.083473,32.08025 79.3262838,26.832 C79.6243784,33.3665 85.7309595,38.20175 91.9979189,39.9395 C98.0853243,41.62825 106.927054,40.0725 110.896419,35.62575 C119.469689,42.4105 124.939986,51.12725 125.766284,60.7155 C125.837757,59.879 125.886568,59.03725 125.886568,58.1885 C125.888311,48.30975 120.956676,39.236 112.725081,32.06975 Z" id="Shape" fill="#27C165" fill-rule="nonzero"></path>
                        <path d="M13.9407162,32.06975 C14.6554459,31.44675 15.3910946,30.836 16.1546351,30.2445 C16.8658784,31.43275 17.6956622,32.5265 18.6439865,33.4925 C22.9236486,37.84825 29.3701622,39.796 35.6493243,38.01625 C41.3601892,36.39925 45.5823243,32.08025 47.3395135,26.832 C47.0414189,33.3665 40.9348378,38.20175 34.6678784,39.9395 C28.580473,41.62825 19.7387432,40.0725 15.7693784,35.62575 C7.19610811,42.4105 1.72581081,51.12725 0.899513514,60.7155 C0.828040541,59.879 0.77922973,59.03725 0.77922973,58.1885 C0.777486486,48.30975 5.70912162,39.236 13.9407162,32.06975 Z" id="Shape" fill="#27C165" fill-rule="nonzero"></path>
                        <path d="M63.332027,20.266 C68.6297432,20.266 73.7653378,20.7245 78.6777973,21.561 C78.6865135,20.07175 78.8660676,18.5615 79.277473,17.05825 C74.1872027,16.15525 68.8441622,15.6705 63.3337703,15.6705 C57.8233784,15.6705 52.4803378,16.15525 47.3900676,17.05825 C47.801473,18.5615 47.981027,20.07175 47.9897432,21.561 C52.9004595,20.7245 58.0343108,20.266 63.332027,20.266 Z" id="Shape" fill="#27C165" fill-rule="nonzero"></path>
                        <g transform="translate(74.493444, 0.277027)" fill-rule="nonzero">
                            <ellipse id="Oval" fill="#00993E" transform="translate(21.443970, 21.369442) rotate(-74.240343) translate(-21.443970, -21.369442) " cx="21.4439704" cy="21.3694416" rx="17.2823435" ry="17.3493293"></ellipse>
                            <ellipse id="Oval" fill="#2ECC71" transform="translate(21.004399, 20.579309) rotate(-74.240343) translate(-21.004399, -20.579309) " cx="21.0043991" cy="20.5793089" rx="16.6425795" ry="16.7070856"></ellipse>
                            <ellipse id="Oval" fill="url(#radialGradient-5)" cx="21.0031642" cy="20.575223" rx="13.7733649" ry="13.82675"></ellipse>
                            <g transform="translate(13.945946, 16.222973)" id="Shape">
                                <path d="M7.05721822,0.5005 C3.36328579,0.5005 0.370137142,3.3845 0.112137142,7.028 L4.12508309,8.07975 L0.596758764,10.2095 C1.64793444,12.75225 4.14251552,14.54425 7.05547498,14.54425 C10.918502,14.54425 14.0493669,11.40125 14.0493669,7.52325 C14.0528534,3.64525 10.9202453,0.5005 7.05721822,0.5005 Z" fill="#2A5351"></path>
                                <path d="M0.113880385,7.028 C0.101677683,7.19425 0.0633263313,7.3535 0.0633263313,7.52325 C0.0633263313,8.47525 0.256826331,9.38175 0.598502007,10.21125 L4.12682633,8.0815 L0.113880385,7.028 Z" fill="#FFFFFF"></path>
                            </g>
                        </g>
                        <g transform="translate(8.716216, 0.000000)" fill-rule="nonzero">
                            <ellipse id="Oval" fill="#00993E" transform="translate(22.009641, 21.638942) rotate(-15.759657) translate(-22.009641, -21.638942) " cx="22.0096411" cy="21.6389415" rx="17.2823435" ry="17.3493293"></ellipse>
                            <ellipse id="Oval" fill="#2ECC71" transform="translate(22.449345, 20.850067) rotate(-15.759657) translate(-22.449345, -20.850067) " cx="22.4493449" cy="20.8500667" rx="16.6425795" ry="16.7070856"></ellipse>
                            <ellipse id="Oval" fill="url(#radialGradient-6)" cx="22.4512297" cy="20.85225" rx="13.7733649" ry="13.82675"></ellipse>
                            <g transform="translate(15.223174, 16.500000)" id="Shape">
                                <path d="M7.22805606,0.5005 C3.53412363,0.5005 0.54097498,3.3845 0.28297498,7.028 L4.29592093,8.07975 L0.767596602,10.2095 C1.81877228,12.75225 4.31335336,14.54425 7.22631282,14.54425 C11.0893398,14.54425 14.2202047,11.40125 14.2202047,7.52325 C14.2236912,3.64525 11.0910831,0.5005 7.22805606,0.5005 Z" fill="#2A5351"></path>
                                <path d="M0.284718223,7.028 C0.27251552,7.19425 0.235907412,7.3535 0.235907412,7.52325 C0.235907412,8.47525 0.429407412,9.38175 0.771083088,10.21125 L4.29940741,8.0815 L0.284718223,7.028 Z" fill="#FFFFFF"></path>
                            </g>
                        </g>
                        <g transform="translate(57.061012, 33.527027)" fill="#44A85F" fill-rule="nonzero" id="Oval">
                            <ellipse cx="1.4892993" cy="1.22372297" rx="1.38762162" ry="1"></ellipse>
                            <ellipse cx="11.054475" cy="1.22372297" rx="1.38762162" ry="1"></ellipse>
                        </g>
                        <g id="Group-10" transform="translate(68.182633, 65.500000) scale(1, -1) translate(-68.182633, -65.500000) translate(25.682633, 51.500000)">
                            <path d="M2.22767352,8.75 C2.22635818,8.75117909 2.20925876,8.76179094 2.20925876,8.76179094 C14.5195204,35.0614936 69.8637416,33.5251335 78.9119615,9.46806855 C78.9119615,9.46806855 78.8738166,9.44212847 78.8659246,9.4350539 C65.1627186,28.7674872 19.5546396,27.9998967 2.22767352,8.75 Z" id="Shape" fill="url(#linearGradient-7)" fill-rule="nonzero"></path>
                            <path d="M78.9119615,7.5033174 C69.8624263,25.0238823 14.518205,26.1428945 2.20925876,6.98887959 C2.20925876,6.98887959 16.1005583,0 41.1235754,0 C64.8180996,-0.00109922611 78.9119615,7.5033174 78.9119615,7.5033174 Z" id="Shape" fill="url(#linearGradient-8)" fill-rule="nonzero"></path>
                            <path d="M78.9119615,7.51402952 C69.8624263,25.0206886 14.518205,26.1388127 2.20925876,7" id="Shape" stroke="#00993E"></path>
                            <ellipse id="Oval" fill="#00993E" fill-rule="nonzero" transform="translate(81.526826, 7.875000) rotate(-63.903841) translate(-81.526826, -7.875000) " cx="81.5268263" cy="7.875" rx="1" ry="2.625"></ellipse>
                            <ellipse id="Oval" fill="#00993E" fill-rule="nonzero" transform="translate(3.080880, 7.875000) rotate(-26.096159) translate(-3.080880, -7.875000) " cx="3.08088039" cy="7.875" rx="2.61486486" ry="1"></ellipse>
                        </g>
                        <g transform="translate(101.108108, 37.500000)" fill="#006D2C" fill-rule="nonzero" id="Oval" opacity="0.17">
                            <ellipse cx="4.59518919" cy="8.28625" rx="3.62943243" ry="3.6435"></ellipse>
                            <ellipse transform="translate(16.397200, 4.658881) rotate(-19.038307) translate(-16.397200, -4.658881) " cx="16.3971999" cy="4.65888063" rx="3.15875444" ry="3.17099767"></ellipse>
                            <ellipse transform="translate(16.520413, 15.070032) rotate(-19.038307) translate(-16.520413, -15.070032) " cx="16.5204125" cy="15.0700323" rx="2.35686313" ry="2.36599826"></ellipse>
                        </g>
                        <g transform="translate(5.229730, 37.027027)" fill="#006D2C" fill-rule="nonzero" id="Oval" opacity="0.17">
                            <ellipse cx="16.0413243" cy="8.14847297" rx="3.62943243" ry="3.6435"></ellipse>
                            <ellipse transform="translate(4.230962, 4.496119) rotate(-70.961693) translate(-4.230962, -4.496119) " cx="4.23096187" cy="4.49611885" rx="3.15875444" ry="3.17099767"></ellipse>
                            <ellipse transform="translate(4.106546, 14.906134) rotate(-70.961693) translate(-4.106546, -14.906134) " cx="4.10654573" cy="14.906134" rx="2.35686313" ry="2.36599826"></ellipse>
                        </g>
                        <g transform="translate(52.297297, 14.750000)" fill="#006D2C" fill-rule="nonzero" opacity="0.17">
                            <ellipse id="Oval" transform="translate(10.951634, 8.788131) rotate(-57.778407) translate(-10.951634, -8.788131) " cx="10.9516335" cy="8.7881311" rx="1.97336935" ry="1.98101807"></ellipse>
                            <path d="M4.15763514,5.34625 C6.2042027,5.34625 7.86377027,3.68025 7.86377027,1.62575 C7.86377027,1.38425 7.83587838,1.148 7.7922973,0.9205 C5.30817568,1.00275 2.86763514,1.1935 0.468932432,1.4665 C0.467189189,1.52075 0.453243243,1.5715 0.453243243,1.62575 C0.453243243,3.682 2.11106757,5.34625 4.15763514,5.34625 Z" id="Shape"></path>
                            <path d="M17.7270405,5.34625 C19.7736081,5.34625 21.4331757,3.68025 21.4331757,1.62575 C21.4331757,1.5715 21.4192297,1.52075 21.4174865,1.4665 C19.0187838,1.1935 16.5765,1.00275 14.0941216,0.9205 C14.0505405,1.14975 14.0226486,1.38425 14.0226486,1.62575 C14.0209054,3.682 15.680473,5.34625 17.7270405,5.34625 Z" id="Shape"></path>
                        </g>
                    </g>
                    <path d="M88.5846486,172.37425 C88.745027,171.85625 88.9699054,171.40125 89.196527,171.074 C89.5399459,170.577 89.6794054,170.1465 89.6863784,169.8035 C89.6061892,170.01875 89.4998514,170.24625 89.325527,170.49825 C89.0204595,170.941 88.7275946,171.62525 88.5846486,172.37425 Z" id="Shape" fill="#2ECC71" fill-rule="nonzero"></path>
                    <g transform="translate(0.000000, 93.500000)" fill-rule="nonzero" id="Shape">
                        <path d="M14.706,25.89125 C16.9164324,23.828 19.5661622,21.4725 22.3483784,19.026 C22.3501216,19.0225 22.3518649,19.02075 22.3536081,19.01725 C19.6812162,21.322 17.021027,23.667 14.706,25.89125 Z" fill="#00993E" opacity="0.48"></path>
                        <path d="M43.8844054,66.7835 L32.1401757,63.40425 C32.1244865,63.399 32.1070541,63.39725 32.0896216,63.3955 C31.2772703,63.357 30.5363919,63.67725 29.9977297,64.20925 L22.890527,60.844 C22.890527,60.844 19.6393784,60.844 18.7834459,60.8615 C18.7834459,60.8615 24.3443919,65.43425 29.8024865,68.0225 L32.9438108,77.71925 C33.2262162,78.61175 34.3680405,78.5995 34.4325405,77.32375 L34.6957703,73.262 C34.7358649,72.653 35.4418784,72.1175 36.0258649,72.58825 L39.8487973,76.279 C40.5617838,76.902 41.6617703,76.132 41.1021892,75.02425 L38.7348649,70.301 C38.5030135,69.6745 38.6651351,69.244 39.4966622,68.96575 L43.5200676,68.103 C44.5363784,67.8475 44.4492162,66.98125 43.8844054,66.7835 Z" fill="#00993E" opacity="0.48"></path>
                        <g>
                            <path d="M15.9419595,26.2395 C18.1523919,24.17625 20.8021216,21.82075 23.5843378,19.37425 C23.5860811,19.37075 23.5878243,19.369 23.5895676,19.3655 C20.9154324,21.6685 18.2569865,24.0135 15.9419595,26.2395 Z" fill="#00993E" opacity="0.48"></path>
                            <path d="M10.4838649,32.0775 C11.1724459,30.8735 13.2225,28.77875 15.9419595,26.2395 C18.2569865,24.01525 20.9154324,21.6685 23.5895676,19.36725 C23.922527,18.7635 24.2537432,18.193 24.5727568,17.689 C24.8865405,17.192 25.1950946,16.66175 25.4966757,16.114 C25.4931892,16.11575 25.4879595,16.1175 25.484473,16.11925 C27.2974459,12.82575 28.8210405,8.76225 29.4677838,5.9955 L29.4677838,5.99375 C29.5741216,5.54225 29.6543108,5.12925 29.7100946,4.7565 C29.7135811,4.73375 29.7153243,4.7145 29.7188108,4.69175 C29.7711081,4.33475 29.8007432,4.018 29.8007432,3.752 C29.8007432,3.72575 29.7955135,3.70125 29.7937703,3.675 C29.7902838,3.43175 29.7554189,3.19725 29.7066081,2.96625 C29.6839459,2.863 29.6577973,2.76325 29.6264189,2.66175 C29.5810946,2.51125 29.5235676,2.36425 29.4625541,2.21725 C29.3771351,2.02125 29.2795135,1.8305 29.1679459,1.6415 C29.1051892,1.5365 29.0476622,1.4315 28.9779324,1.33 C28.8698514,1.1725 28.7495676,1.02025 28.6240541,0.868 C28.5891892,0.826 28.5560676,0.78575 28.5194595,0.74375 C28.4845946,0.7035 28.4462432,0.665 28.4096351,0.62475 C28.1708108,1.2075 27.3357973,2.268 26.0876351,3.68375 C23.8824324,6.2685 20.2547432,9.96975 13.7576757,17.09575 C13.7280405,17.129 13.6984054,17.16225 13.6687703,17.1955 C14.0732027,19.85025 14.5002973,25.05125 10.4838649,32.0775 Z" fill="#2ECC71"></path>
                            <path d="M10.4838649,32.0775 C11.1724459,30.8735 13.2225,28.77875 15.9419595,26.2395 C18.2569865,24.01525 20.9154324,21.6685 23.5895676,19.36725 C23.922527,18.7635 24.2537432,18.193 24.5727568,17.689 C24.8865405,17.192 25.1950946,16.66175 25.4966757,16.114 C25.4931892,16.11575 25.4879595,16.1175 25.484473,16.11925 C27.2974459,12.82575 28.8210405,8.76225 29.4677838,5.9955 L29.4677838,5.99375 C29.5741216,5.54225 29.6543108,5.12925 29.7100946,4.7565 C29.7135811,4.73375 29.7153243,4.7145 29.7188108,4.69175 C29.7711081,4.33475 29.8007432,4.018 29.8007432,3.752 C29.8007432,3.72575 29.7955135,3.70125 29.7937703,3.675 C29.7902838,3.43175 29.7554189,3.19725 29.7066081,2.96625 C29.6839459,2.863 29.6577973,2.76325 29.6264189,2.66175 C29.5810946,2.51125 29.5235676,2.36425 29.4625541,2.21725 C29.3771351,2.02125 29.2795135,1.8305 29.1679459,1.6415 C29.1051892,1.5365 29.0476622,1.4315 28.9779324,1.33 C28.8698514,1.1725 28.7495676,1.02025 28.6240541,0.868 C28.5891892,0.826 28.5560676,0.78575 28.5194595,0.74375 C28.4845946,0.7035 28.4462432,0.665 28.4096351,0.62475 C28.1708108,1.2075 27.3357973,2.268 26.0876351,3.68375 C23.8824324,6.2685 20.2547432,9.96975 13.7576757,17.09575 C13.7280405,17.129 13.6984054,17.16225 13.6687703,17.1955 C14.0732027,19.85025 14.5002973,25.05125 10.4838649,32.0775 Z" fill="#00993E" opacity="0.48"></path>
                            <path d="M33.0257432,63.2555 C31.4062703,63.1995 25.6570541,58.758 20.1466622,53.1195 C14.9099595,47.761 9.88767568,41.32275 8.83301351,36.50325 C8.35362162,34.3105 11.5123784,30.499 15.9437027,26.2395 C13.2242432,28.77875 11.1741892,30.8735 10.4856081,32.0775 C14.5020405,25.05125 14.0749459,19.85025 13.6722568,17.1955 C6.97471622,24.745 0.615364865,32.95075 0.993648649,37.618 C2.75432432,49.55475 26.8529189,68.02425 32.966473,68.91675 C33.6358784,69.01475 33.9618649,67.3715 33.9252568,65.82975 C33.8938784,64.5155 33.0257432,63.2555 33.0257432,63.2555 Z" fill="#2ECC71"></path>
                        </g>
                        <path d="M34.7811892,77.021 L35.0444189,72.95925 C35.0845135,72.35025 35.790527,71.81475 36.3745135,72.2855 L40.1974459,75.97625 C40.9104324,76.59925 42.0104189,75.82925 41.4508378,74.7215 L39.0835135,69.99825 C38.8516622,69.3735 39.0137838,68.94125 39.8453108,68.663 L43.8687162,67.80025 C44.8815405,67.54825 44.7961216,66.682 44.2313108,66.486 L32.4870811,63.10675 C32.4713919,63.1015 32.4539595,63.09975 32.436527,63.098 C30.9181622,63.02625 29.6194459,64.18475 29.5113649,65.7055 C29.5096216,65.7335 29.5131081,65.7615 29.5218243,65.78775 L33.2907162,77.42 C33.5748649,78.309 34.7166892,78.29675 34.7811892,77.021 Z" fill="#2ECC71"></path>
                    </g>
                    <g transform="translate(81.932432, 93.500000)" fill-rule="nonzero" id="Shape">
                        <path d="M30.2260946,25.89125 C28.0156622,23.828 25.3659324,21.4725 22.5837162,19.026 C22.581973,19.0225 22.5802297,19.02075 22.5784865,19.01725 C25.2508784,21.322 27.9110676,23.667 30.2260946,25.89125 Z" fill="#00993E" opacity="0.48"></path>
                        <path d="M1.04768919,66.7835 L12.7919189,63.40425 C12.8076081,63.399 12.8250405,63.39725 12.842473,63.3955 C13.6548243,63.357 14.3957027,63.67725 14.9343649,64.20925 L22.0415676,60.844 C22.0415676,60.844 25.2927162,60.844 26.1486486,60.8615 C26.1486486,60.8615 20.5877027,65.43425 15.1296081,68.0225 L11.9882838,77.71925 C11.7058784,78.61175 10.5640541,78.5995 10.4995541,77.32375 L10.2363243,73.262 C10.1962297,72.653 9.49021622,72.1175 8.90622973,72.58825 L5.0832973,76.279 C4.37031081,76.902 3.27032432,76.132 3.82990541,75.02425 L6.19722973,70.301 C6.42908108,69.6745 6.26695946,69.244 5.43543243,68.96575 L1.41202703,68.103 C0.395716216,67.8475 0.482878378,66.98125 1.04768919,66.7835 Z" fill="#00993E" opacity="0.48"></path>
                        <g transform="translate(10.459459, 0.000000)">
                            <path d="M18.5306757,26.2395 C16.3202432,24.17625 13.6705135,21.82075 10.8882973,19.37425 C10.8865541,19.37075 10.8848108,19.369 10.8830676,19.3655 C13.5572027,21.6685 16.2156486,24.0135 18.5306757,26.2395 Z" fill="#00993E" opacity="0.48"></path>
                            <path d="M23.9887703,32.0775 C23.3001892,30.8735 21.2501351,28.77875 18.5306757,26.2395 C16.2156486,24.01525 13.5572027,21.6685 10.8830676,19.36725 C10.5501081,18.7635 10.2188919,18.193 9.89987838,17.689 C9.58609459,17.192 9.27754054,16.66175 8.97595946,16.114 C8.97944595,16.11575 8.98467568,16.1175 8.98816216,16.11925 C7.17518919,12.82575 5.65159459,8.76225 5.00485135,5.9955 L5.00485135,5.99375 C4.89851351,5.54225 4.81832432,5.12925 4.76254054,4.7565 C4.75905405,4.73375 4.75731081,4.7145 4.75382432,4.69175 C4.70152703,4.33475 4.67189189,4.018 4.67189189,3.752 C4.67189189,3.72575 4.67712162,3.70125 4.67886486,3.675 C4.68235135,3.43175 4.71721622,3.19725 4.76602703,2.96625 C4.78868919,2.863 4.81483784,2.76325 4.84621622,2.66175 C4.89154054,2.51125 4.94906757,2.36425 5.01008108,2.21725 C5.0955,2.02125 5.19312162,1.8305 5.30468919,1.6415 C5.36744595,1.5365 5.42497297,1.4315 5.4947027,1.33 C5.60278378,1.1725 5.72306757,1.02025 5.84858108,0.868 C5.88344595,0.826 5.91656757,0.78575 5.95317568,0.74375 C5.98804054,0.7035 6.02639189,0.665 6.063,0.62475 C6.30182432,1.2075 7.13683784,2.268 8.385,3.68375 C10.5902027,6.2685 14.2178919,9.96975 20.7149595,17.09575 C20.7445946,17.129 20.7742297,17.16225 20.8038649,17.1955 C20.3994324,19.85025 19.9723378,25.05125 23.9887703,32.0775 Z" fill="#2ECC71"></path>
                            <path d="M23.9887703,32.0775 C23.3001892,30.8735 21.2501351,28.77875 18.5306757,26.2395 C16.2156486,24.01525 13.5572027,21.6685 10.8830676,19.36725 C10.5501081,18.7635 10.2188919,18.193 9.89987838,17.689 C9.58609459,17.192 9.27754054,16.66175 8.97595946,16.114 C8.97944595,16.11575 8.98467568,16.1175 8.98816216,16.11925 C7.17518919,12.82575 5.65159459,8.76225 5.00485135,5.9955 L5.00485135,5.99375 C4.89851351,5.54225 4.81832432,5.12925 4.76254054,4.7565 C4.75905405,4.73375 4.75731081,4.7145 4.75382432,4.69175 C4.70152703,4.33475 4.67189189,4.018 4.67189189,3.752 C4.67189189,3.72575 4.67712162,3.70125 4.67886486,3.675 C4.68235135,3.43175 4.71721622,3.19725 4.76602703,2.96625 C4.78868919,2.863 4.81483784,2.76325 4.84621622,2.66175 C4.89154054,2.51125 4.94906757,2.36425 5.01008108,2.21725 C5.0955,2.02125 5.19312162,1.8305 5.30468919,1.6415 C5.36744595,1.5365 5.42497297,1.4315 5.4947027,1.33 C5.60278378,1.1725 5.72306757,1.02025 5.84858108,0.868 C5.88344595,0.826 5.91656757,0.78575 5.95317568,0.74375 C5.98804054,0.7035 6.02639189,0.665 6.063,0.62475 C6.30182432,1.2075 7.13683784,2.268 8.385,3.68375 C10.5902027,6.2685 14.2178919,9.96975 20.7149595,17.09575 C20.7445946,17.129 20.7742297,17.16225 20.8038649,17.1955 C20.3994324,19.85025 19.9723378,25.05125 23.9887703,32.0775 Z" fill="#00993E" opacity="0.48"></path>
                            <path d="M1.44689189,63.2555 C3.06636486,63.1995 8.81558108,58.758 14.325973,53.1195 C19.5626757,47.761 24.5849595,41.32275 25.6396216,36.50325 C26.1190135,34.3105 22.9602568,30.499 18.5289324,26.2395 C21.2483919,28.77875 23.2984459,30.8735 23.987027,32.0775 C19.9705946,25.05125 20.3976892,19.85025 20.8003784,17.1955 C27.4979189,24.745 33.8572703,32.95075 33.4789865,37.618 C31.7183108,49.55475 7.61971622,68.02425 1.50616216,68.91675 C0.836756757,69.01475 0.51077027,67.3715 0.547378378,65.82975 C0.578756757,64.5155 1.44689189,63.2555 1.44689189,63.2555 Z" fill="#2ECC71"></path>
                        </g>
                        <path d="M10.1509054,77.021 L9.88767568,72.95925 C9.84758108,72.35025 9.14156757,71.81475 8.55758108,72.2855 L4.73464865,75.97625 C4.02166216,76.59925 2.92167568,75.82925 3.48125676,74.7215 L5.84858108,69.99825 C6.08043243,69.3735 5.91831081,68.94125 5.08678378,68.663 L1.06337838,67.80025 C0.0505540541,67.54825 0.135972973,66.682 0.700783784,66.486 L12.4450135,63.10675 C12.4607027,63.1015 12.4781351,63.09975 12.4955676,63.098 C14.0139324,63.02625 15.3126486,64.18475 15.4207297,65.7055 C15.422473,65.7335 15.4189865,65.7615 15.4102703,65.78775 L11.6413784,77.42 C11.3572297,78.309 10.2154054,78.29675 10.1509054,77.021 Z" fill="#2ECC71"></path>
                    </g>
                </g>
            </g>
        </g>
    </g>
</svg>